<svg width="232" height="100" viewBox="0 0 232 100" fill="none" xmlns="http://www.w3.org/2000/svg">
<g clip-path="url(#clip0_4227_808)">
<path d="M53.1934 75.7574V1.66907H33.2097V2.01119C37.5254 5.49765 36.9099 11.9037 36.9099 17.7619V75.7574H53.1934Z" fill="white"/>
<path d="M98.9038 1.66907V2.01119C102.687 6.62694 102.779 11.5674 102.779 18.0953V48.4108L75.5521 1.66907H57.4395V2.01119C62.1923 8.76375 62.5447 11.7936 62.5447 20.4582V75.7516H71.7024V28.3908H71.9627L90.9742 61.9333C93.9712 66.8593 99.6171 78.2319 111.937 78.0565V1.66907H98.9038Z" fill="white"/>
<path d="M137.914 37.653L149.629 67.464C151.973 73.4831 155.594 75.8808 161.559 75.775H174.613C171.26 73.1439 168.347 67.1437 165.547 61.6001L155.006 39.1331C159.901 37.2732 165.558 33.7215 165.012 19.6162C164.441 4.67303 154.705 1.66931 147.144 1.66931H116.479V2.01143C120.795 5.49789 120.177 11.904 120.177 17.7621V75.7765H135.869V12.5824H142.1C147.453 12.5824 150.67 16.0123 150.67 23.5535C150.67 31.0947 146.699 37.8168 137.914 37.653Z" fill="white"/>
<path d="M198.429 0.00318016C180.505 0.271369 166.131 17.7921 166.328 39.1414C166.524 60.4878 181.211 77.5765 199.144 77.3054C217.062 77.0372 231.442 59.5194 231.245 38.1701C231.046 16.8266 216.356 -0.267908 198.429 0.00318016ZM199.043 66.1357C190.475 66.2691 183.407 54.0657 183.272 38.892C183.129 23.7111 189.966 11.3063 198.533 11.1758C207.105 11.0511 214.166 23.2515 214.306 38.4252C214.442 53.6004 207.604 65.9994 199.042 66.1357H199.043Z" fill="white"/>
<path d="M12.3891 12.2184V67.4407C12.3891 86.1226 9.27422 92.6157 0.301998 97.717L0 99.9988C23.6551 97.6692 28.6481 83.8017 28.6481 66.0215V1.67639H8.67454V2.01851C12.1418 4.69171 12.3877 10.299 12.3877 12.2184H12.3891Z" fill="white"/>
</g>
<defs>
<clipPath id="clip0_4227_808">
<rect width="231.25" height="100" fill="white"/>
</clipPath>
</defs>
</svg>
