<svg width="55" height="55" viewBox="0 0 55 55" fill="none" xmlns="http://www.w3.org/2000/svg">
<g clip-path="url(#clip0_4227_802)">
<path d="M27.3262 8.05664C27.3262 8.05664 44.3723 8.05643 48.6367 9.20312C49.795 9.51896 50.8501 10.1337 51.6963 10.9854C52.5426 11.8371 53.1506 12.8962 53.459 14.0566C54.5982 18.335 54.5996 27.2517 54.5996 27.2715C54.5996 27.2715 54.5994 36.2032 53.459 40.4863C53.1506 41.6467 52.5426 42.7059 51.6963 43.5576C50.8501 44.4093 49.795 45.024 48.6367 45.3398C44.3723 46.4865 27.3262 46.4863 27.3262 46.4863C27.2487 46.4863 10.2715 46.4839 6.0166 45.3398C4.85826 45.0241 3.8033 44.4093 2.95703 43.5576C2.11073 42.7059 1.50272 41.6468 1.19434 40.4863C0.0538477 36.2033 0.0537109 27.2715 0.0537109 27.2715C0.0537123 27.2517 0.0551086 18.3349 1.19434 14.0566C1.50272 12.8962 2.11074 11.8371 2.95703 10.9854C3.80329 10.1337 4.85828 9.51891 6.0166 9.20312C10.2715 8.05908 27.2487 8.05665 27.3262 8.05664ZM21.749 35.3838L36.0049 27.2734L21.749 19.1631V35.3838Z" fill="#12DF49"/>
</g>
<defs>
<clipPath id="clip0_4227_802">
<rect width="54.5455" height="54.5455" fill="white"/>
</clipPath>
</defs>
</svg>
