<svg width="56" height="55" viewBox="0 0 56 55" fill="none" xmlns="http://www.w3.org/2000/svg">
<path d="M39.674 19.6897C43.1816 22.206 47.4786 23.6866 52.1195 23.6866V14.7241C51.2412 14.7243 50.3652 14.6324 49.5059 14.4497V21.5044C44.8653 21.5044 40.5689 20.0239 37.0603 17.5078V35.7975C37.0603 44.9469 29.6696 52.3635 20.5532 52.3635C17.1517 52.3635 13.9901 51.3315 11.3638 49.5615C14.3613 52.6373 18.5416 54.5454 23.1663 54.5454C32.2833 54.5454 39.6744 47.1289 39.6744 37.9791V19.6897H39.674ZM42.8982 10.6477C41.1056 8.68237 39.9286 6.14248 39.674 3.33452V2.18176H37.1972C37.8206 5.75067 39.9471 8.79974 42.8982 10.6477ZM17.1299 42.5405C16.1283 41.2226 15.5871 39.6105 15.5895 37.9529C15.5895 33.7683 18.97 30.3753 23.1406 30.3753C23.9178 30.3751 24.6904 30.4946 25.4312 30.7304V21.5677C24.5655 21.4486 23.6919 21.3981 22.8186 21.4166V28.5485C22.0773 28.3126 21.3044 28.1928 20.5269 28.1935C16.3564 28.1935 12.9761 31.5861 12.9761 35.7713C12.9761 38.7305 14.6657 41.2924 17.1299 42.5405Z" fill="#12DF49"/>
<path d="M37.06 17.5076C40.5685 20.0237 44.8649 21.5042 49.5055 21.5042V14.4495C46.9152 13.8958 44.622 12.5373 42.8979 10.6477C39.9466 8.79955 37.8203 5.75049 37.1968 2.18176H30.6909V37.9787C30.6762 42.1519 27.3015 45.531 23.1399 45.531C20.6875 45.531 18.5088 44.3578 17.129 42.5405C14.665 41.2925 12.9753 38.7303 12.9753 35.7715C12.9753 31.5867 16.3556 28.1937 20.5262 28.1937C21.3253 28.1937 22.0955 28.3186 22.8179 28.5486V21.4168C13.8617 21.6025 6.65869 28.9466 6.65869 37.9789C6.65869 42.4877 8.4524 46.5751 11.3636 49.5617C13.9899 51.3315 17.1515 52.3637 20.5531 52.3637C29.6696 52.3637 37.0602 44.9467 37.0602 35.7975V17.5076H37.06Z" fill="#12DF49"/>
</svg>
