<svg width="56" height="55" viewBox="0 0 56 55" fill="none" xmlns="http://www.w3.org/2000/svg">
<g clip-path="url(#clip0_4227_803)">
<path d="M27.8181 4.91122C35.1051 4.91122 35.968 4.94318 38.8338 5.07102C41.4971 5.18821 42.9353 5.63565 43.8941 6.00852C45.1619 6.49858 46.0781 7.09517 47.0262 8.04332C47.985 9.00213 48.571 9.90767 49.061 11.1754C49.4339 12.1342 49.8814 13.5831 49.9985 16.2358C50.1264 19.1122 50.1583 19.9751 50.1583 27.2514C50.1583 34.5384 50.1264 35.4013 49.9985 38.267C49.8814 40.9304 49.4339 42.3686 49.061 43.3274C48.571 44.5952 47.9744 45.5114 47.0262 46.4595C46.0674 47.4183 45.1619 48.0043 43.8941 48.4943C42.9353 48.8672 41.4865 49.3146 38.8338 49.4318C35.9573 49.5597 35.0944 49.5916 27.8181 49.5916C20.5312 49.5916 19.6683 49.5597 16.8025 49.4318C14.1392 49.3146 12.701 48.8672 11.7421 48.4943C10.4744 48.0043 9.5582 47.4077 8.61004 46.4595C7.65123 45.5007 7.0653 44.5952 6.57524 43.3274C6.20237 42.3686 5.75493 40.9197 5.63774 38.267C5.5099 35.3906 5.47794 34.5277 5.47794 27.2514C5.47794 19.9645 5.5099 19.1016 5.63774 16.2358C5.75493 13.5724 6.20237 12.1342 6.57524 11.1754C7.0653 9.90767 7.66189 8.99148 8.61004 8.04332C9.56885 7.08452 10.4744 6.49858 11.7421 6.00852C12.701 5.63565 14.1498 5.18821 16.8025 5.07102C19.6683 4.94318 20.5312 4.91122 27.8181 4.91122ZM27.8181 0C20.414 0 19.4872 0.0319602 16.5788 0.159801C13.6811 0.287642 11.6889 0.756392 9.96303 1.42756C8.1626 2.13068 6.63916 3.05753 5.12638 4.58097C3.60294 6.09375 2.67609 7.61719 1.97297 9.40696C1.3018 11.1435 0.833052 13.125 0.705211 16.0227C0.57737 18.9418 0.54541 19.8686 0.54541 27.2727C0.54541 34.6768 0.57737 35.6037 0.705211 38.5121C0.833052 41.4098 1.3018 43.402 1.97297 45.1278C2.67609 46.9283 3.60294 48.4517 5.12638 49.9645C6.63916 51.4773 8.1626 52.4148 9.95237 53.1072C11.6889 53.7784 13.6704 54.2472 16.5681 54.375C19.4765 54.5028 20.4034 54.5348 27.8075 54.5348C35.2116 54.5348 36.1385 54.5028 39.0468 54.375C41.9446 54.2472 43.9368 53.7784 45.6626 53.1072C47.4524 52.4148 48.9758 51.4773 50.4886 49.9645C52.0014 48.4517 52.9389 46.9283 53.6314 45.1385C54.3025 43.402 54.7713 41.4205 54.8991 38.5227C55.027 35.6143 55.0589 34.6875 55.0589 27.2834C55.0589 19.8793 55.027 18.9524 54.8991 16.044C54.7713 13.1463 54.3025 11.1541 53.6314 9.42827C52.9602 7.61719 52.0333 6.09375 50.5099 4.58097C48.9971 3.06818 47.4737 2.13068 45.6839 1.43821C43.9474 0.767045 41.9659 0.298295 39.0681 0.170455C36.1491 0.0319602 35.2223 0 27.8181 0Z" fill="#12DF49"/>
<path d="M27.8183 13.2635C20.0839 13.2635 13.8091 19.5384 13.8091 27.2728C13.8091 35.0072 20.0839 41.282 27.8183 41.282C35.5527 41.282 41.8275 35.0072 41.8275 27.2728C41.8275 19.5384 35.5527 13.2635 27.8183 13.2635ZM27.8183 36.3601C22.8006 36.3601 18.731 32.2905 18.731 27.2728C18.731 22.255 22.8006 18.1854 27.8183 18.1854C32.8361 18.1854 36.9057 22.255 36.9057 27.2728C36.9057 32.2905 32.8361 36.3601 27.8183 36.3601Z" fill="#12DF49"/>
<path d="M45.652 12.7096C45.652 14.5206 44.1819 15.9802 42.3814 15.9802C40.5704 15.9802 39.1108 14.51 39.1108 12.7096C39.1108 10.8985 40.581 9.43896 42.3814 9.43896C44.1819 9.43896 45.652 10.9091 45.652 12.7096Z" fill="#12DF49"/>
</g>
<defs>
<clipPath id="clip0_4227_803">
<rect width="54.5455" height="54.5455" fill="white" transform="translate(0.54541)"/>
</clipPath>
</defs>
</svg>
