<svg width="55" height="55" viewBox="0 0 55 55" fill="none" xmlns="http://www.w3.org/2000/svg">
<g clip-path="url(#clip0_4227_800)">
<path d="M27.3633 0C42.4255 0 54.6366 12.2103 54.6367 27.2725C54.6367 40.8848 44.6631 52.1678 31.625 54.2139V35.1562H37.9795L39.1895 27.2725H31.625V22.1592C31.625 21.5739 31.7041 20.9932 31.8848 20.457C32.1625 19.6337 32.6822 18.9153 33.5381 18.4512C33.7307 18.3468 33.9404 18.2557 34.168 18.1787C34.3957 18.1016 34.6414 18.0385 34.9062 17.9922C35.2592 17.9305 35.6461 17.8975 36.0693 17.8975H39.5088V11.1855C39.5088 11.1855 39.0698 11.1112 38.3643 11.0176C37.1877 10.8615 35.2685 10.6533 33.4033 10.6533C32.2831 10.6533 31.2332 10.7776 30.2637 11.0176C29.7612 11.142 29.2807 11.2982 28.8232 11.4854C28.016 11.8156 27.2807 12.241 26.627 12.7617C26.2541 13.0587 25.9074 13.3859 25.5889 13.7432C24.3245 15.1613 23.5007 17.0499 23.2148 19.3721C23.1408 19.9737 23.1026 20.6044 23.1025 21.2637V27.2725H16.1777V35.1562H23.1025V54.2139C10.0644 52.1679 0.0908203 40.8849 0.0908203 27.2725C0.0909657 12.2104 12.3012 0.000143796 27.3633 0Z" fill="#12DF49"/>
</g>
<defs>
<clipPath id="clip0_4227_800">
<rect width="54.5455" height="54.5455" fill="white" transform="translate(0.0908203)"/>
</clipPath>
</defs>
</svg>
