<?xml version="1.0" encoding="UTF-8"?>
<svg id="Layer_1" xmlns="http://www.w3.org/2000/svg" version="1.1" viewBox="0 0 585.9 83.3">
  <!-- Generator: Adobe Illustrator 29.0.1, SVG Export Plug-In . SVG Version: 2.1.0 Build 192)  -->
  <path d="M417.9,18.1v1h1.6c3.9,0,4.2,2.1,4.2,4.7h0v22.3c0,9.3,0,16.9-13.4,16.9s-13.4-7.6-13.4-16.9v-21.8s0,0,0,0c0-2.9,0-5.2,4.2-5.2h1.6v-1h-17.5v1h1.6c3.9,0,4.2,2.1,4.2,4.7h0v22.3c0,12.9,3.5,19.4,19.3,19.4s15.9-10.3,15.9-19.4v-21.8h0c0-2.9,0-5.2,4.2-5.2h1.6v-1h-14Z"/>
  <path d="M111.6,18.2h-11.5v1h1.3c4.2,0,4.2,2.4,4.2,5.3h0v34.5h0c0,2.9,0,5.3-4.2,5.3s0,0,0,0h-1.3v1h11.5c10.7,0,30.4,0,30.4-23.5s-19.7-23.5-30.4-23.5ZM116.7,62.7c-.3,0-.5,0-.9,0-4.2,0-4.2-2.4-4.2-5.3,0,0,0,0,0,0V20.7c10.9,0,24.4,3.8,24.4,21s-8.9,20.6-19.3,21Z"/>
  <path d="M210.6,18.2h-11.5v1h1.3c4.2,0,4.2,2.4,4.2,5.3h0v52.5h0c0,2.9,0,5.3-4.2,5.3s0,0,0,0h-1.3v1h11.5c10.7,0,41.4,2.7,41.4-31.5s-30.7-33.5-41.4-33.5ZM215.7,80.7c-.3,0-.5,0-.9,0-4.2,0-4.2-2.4-4.2-5.3,0,0,0,0,0,0V20.7c13.6,0,35.4.5,35.4,31s-17.2,28.5-30.3,29Z"/>
  <path d="M299,0h-11.5v1h1.3c4.2,0,4.2,2.4,4.2,5.3h0v52.5h0c0,2.9,0,5.3-4.2,5.3s0,0,0,0h-1.3v1h11.5c10.7,0,41.4,2.7,41.4-31.5S309.7,0,299,0ZM304,62.6c-.3,0-.5,0-.9,0-4.2,0-4.2-2.4-4.2-5.3,0,0,0,0,0,0V2.6c13.6,0,35.4.5,35.4,31s-17.2,28.5-30.3,29Z"/>
  <path d="M454.9,50.1s17.8,2.6,17.8-13.7-22.6-18.2-29.3-18.2h-11.5v1h1.3c4.2,0,4.2,2.4,4.2,5.3h0v52.5h0c0,2.9,0,5.3-4.2,5.3h0s-1.3,0-1.3,0v1h24.6s21.2.3,21.2-17.5-22.8-15.6-22.8-15.6ZM443.4,20.7c6.8,0,23.3-2,23.3,15.7s-16.5,12.7-23.3,12.7v-28.5ZM447.6,80.8c-4.2,0-4.2-2.4-4.2-5.3v-23.8c8.1,0,28.3-1.3,28.3,14s-13.3,15-24.1,15Z"/>
  <path d="M151.5,59.6h0V24.5c0-2.9,0-5.3,4.2-5.3h1.6v-1h-17.5v1h1.6c4.2,0,4.2,2.4,4.2,5.3v34.6h0c0,2.9,0,5.2-4.2,5.2h-1.6v1h17.5v-1h-1.6c-3.9,0-4.2-2.1-4.2-4.7Z"/>
  <path d="M352.2,59.6h0V24.5c0-2.9,0-5.3,4.2-5.3h1.6v-1h-17.5v1h1.6c4.2,0,4.2,2.4,4.2,5.3v34.6h0c0,2.9,0,5.2-4.2,5.2h-1.6v1h17.5v-1h-1.6c-3.9,0-4.2-2.1-4.2-4.7Z"/>
  <path d="M389.2,54.6s-.9,2.8-.9,2.9c-.9,2.8-1,5.3-5.2,5.3h0s-12.8,0-12.8,0h0c-4.2,0-4.2-2.4-4.2-5.3h0v-15.6h13.7c4.2,0,4.2,2.4,4.2,5.3h1v-13.1h-1c0,2.9,0,5.3-4.2,5.3h-13.7v-18.7h15.4c3.6.1,4.2,2.2,4.4,4.8h0s0,.9,0,.9h1c0-.1-.8-8.1-.8-8.1v-.2h-31.6v1h1.3c4.2,0,4.2,2.4,4.2,5.3v34.6h0c0,2.9,0,5.2-4.2,5.2h-1.3v1h32.2s0,0,0,0l3.3-10.4-1-.3Z"/>
  <path d="M283.5,54.6s-.9,2.8-.9,2.9c-.9,2.8-1,5.3-5.2,5.3h0s-12.8,0-12.8,0h0c-4.2,0-4.2-2.4-4.2-5.3h0v-15.6h13.7c4.2,0,4.2,2.4,4.2,5.3h1v-13.1h-1c0,2.9,0,5.3-4.2,5.3h-13.7v-18.7h15.4c3.6.1,4.2,2.2,4.4,4.8h0s0,.9,0,.9h1c0-.1-.8-8.1-.8-8.1v-.2h-31.6v1h1.3c4.2,0,4.2,2.4,4.2,5.3v34.6h0c0,2.9,0,5.2-4.2,5.2h-1.3v1h32.2s0,0,0,0l3.3-10.4-1-.3Z"/>
  <path d="M26.6,10.1h0v-1h-15.7v1h1.3c4.2,0,4.2,2.4,4.2,5.3v50c0,2.9-1,6.3-5.2,6.3-6.9,0-5.2-6.4-5.2-9.3h0c-.2-1.5-1.4-2.7-3-2.7S.2,60.9,0,62.5h0c0,0,0,.1,0,.2,0,0,0,0,0,0,0,0,0,.2,0,.2.2,4.9,2,11.3,11.2,11.3s11.2-3.5,11.2-8.8h0s0-50,0-50c0-2.9,0-5.3,4.2-5.3Z"/>
  <path d="M66.3,64.2c-2.6,0-3.7-1.8-4.7-4h0s-.5-1.2-.5-1.2c0,0,0,0,0,0,0,0,0,0,0,0l-17.1-42.6-15.9,42.7h0c-1,2.7-2,5.2-5.1,5.2h-.7v1h12.8v-1h-2.6c-3-.2-2.8-2-2.1-4.1h0s0,0,0,0c0-.2.1-.3.2-.5l3.2-8.6h17.7l3.2,7.9s0,0,0,0c0,.1.1.3.2.4l.4,1c.7,2,.7,3.7-2.2,3.9h-3.2v1h17.5v-1h-1ZM34.7,48.5l7.6-20.4,8.2,20.4h-15.7Z"/>
  <path d="M185,18.1v1h1.4c4.2,0,4.2,2.4,4.2,5.3s0,.4,0,.6v30.4l-28.8-37.3h0s-8.1,0-8.1,0v1s1.1,0,1.9.9l3.7,4.7v34.2h0c0,2.9,0,5.3-4.2,5.3h-1.4v1h13.8v-1h-1.5c-4.2,0-4.2-2.4-4.2-5.3s0-.3,0-.4h0v-30.6l28.8,37.3h0s2.5,0,2.5,0V24.5h0c0-2.9,0-5.3,4.2-5.3h1.5v-1h-13.7Z"/>
  <path d="M546.3,50.4c-.9,7.3-4.1,12.3-16.3,12.3s-16.6-12.3-16.6-21,5.1-21,16.6-21,15.6,5.3,16.3,12.8h1.3v-12.8s-4-2.5-17.6-2.5-22.6,12-22.6,23.5,6,23.5,22.6,23.5,17.6-2.5,17.6-2.5v-12.3h-1.3Z"/>
  <path d="M489,57.4h0c0,2.9,0,5.3,4.2,5.3h0s12.8,0,12.8,0h0c4.2,0,4.3-2.5,5.2-5.3,0,0,.7-2.4.7-2.4l1,.3-3.2,9.9h0s0,0,0,0h-32.2v-1h1.3c4.1,0,4.2-2.3,4.2-5.2h0V24.5c0-2.9,0-5.3-4.2-5.3h-1.3v-1h17.6v1h-1.9c-4.2,0-4.2,2.4-4.2,5.3v33Z"/>
  <path d="M563.3,20.6c9.1,0,16.5,9.4,16.5,21.1s-7.4,21.1-16.5,21.1-16.5-9.4-16.5-21.1,7.4-21.1,16.5-21.1M563.3,18.1c-13.9,0-22.5,10.6-22.5,23.6s9.1,23.6,22.5,23.6,22.5-10.6,22.5-23.6-8.6-23.6-22.5-23.6h0Z"/>
  <path d="M101.6,62.7l-14.9-21.3c4.7-1.4,8.4-4.4,8.4-11.1,0-12.2-12.4-12.2-20.4-12.2h-11.5s0,1,0,1h1.3c4.2,0,4.2,2.4,4.2,5.3v34.6h0c0,2.9,0,5.2-4.2,5.2h-1.3v1h17.5v-1h-1.8c-4.2,0-4.2-2.4-4.2-5.3v-16.3c1.7,0,3.5,0,5.4-.1l16,22.8h8.7v-1h0c-1.5,0-2.5-.6-3.3-1.5ZM74.7,20.7c8,0,14.5,0,14.5,9.7s-6.5,9.7-14.5,9.7v-19.5Z"/>
</svg>