<?xml version="1.0" encoding="UTF-8"?>
<svg id="_레이어_1" data-name="레이어_1" xmlns="http://www.w3.org/2000/svg" version="1.1" viewBox="0 0 127.2 127.2">
  <!-- Generator: Adobe Illustrator 29.0.1, SVG Export Plug-In . SVG Version: 2.1.0 Build 192)  -->
  <path d="M63.6,0C28.5,0,0,28.5,0,63.6s28.5,63.6,63.6,63.6,63.6-28.5,63.6-63.6S98.7,0,63.6,0ZM63.6,122.5c-32.5,0-58.9-26.4-58.9-58.9S31.1,4.7,63.6,4.7s58.8,26.4,58.8,58.9-26.4,58.9-58.8,58.9Z"/>
  <path d="M63.6,15.8c-26.4,0-47.9,21.5-47.9,47.9s21.5,47.8,47.9,47.8,47.8-21.4,47.8-47.8S90,15.8,63.6,15.8ZM65.9,106.7v-17.2h-4.7v17.2c-22.7-1.2-40.7-20.1-40.7-43S38.5,21.8,61.2,20.6v17.2h4.7v-17.2c22.7,1.2,40.7,20.1,40.7,43.1s-18.1,41.8-40.7,43Z"/>
  <path d="M63.2,63.6c0,3.9,1.8,7.9,9,7.9s5.9-.8,5.9-.8v-4.2h-.4c-.3,2.5-1.4,4.2-5.5,4.2s-4.9-4.2-4.9-7.1,1-7.1,4.9-7.1,5.2,1.8,5.5,4.3h.4v-4.3s-1.3-.8-5.9-.8c-7.2,0-9,4-9,7.9Z"/>
  <path d="M39.9,63.4s3.3.1,3.3-3.6-4.9-4.1-7.2-4.1h-7.9v.3h.5c1.4,0,1.4.8,1.4,1.8h0v11.6h0c0,1,0,1.8-1.4,1.8h0s-.5,0-.5,0v.3h12.3s3.8,0,3.8-4.2-4.3-3.9-4.3-3.9ZM34,56.5c2.3,0,5.1,0,5.1,3.3s-2.8,3.3-5.1,3.3v-6.6ZM35.4,70.7c-1.4,0-1.4-.8-1.4-1.8v-5c2.7,0,6.2,0,6.2,3.4s-2,3.4-4.7,3.4Z"/>
  <path d="M60.7,68.9c-.3.9-.3,1.8-1.7,1.8h0s-5,0-5,0h0c-1.4,0-1.4-.8-1.4-1.8h0v-11.1c0-1,0-1.8,1.4-1.8h.6v-.3h-8v.3h.4c1.4,0,1.4.8,1.4,1.8v11.7c0,1,0,1.7-1.4,1.7h-.4v.3h13.6l1.1-3.3h-.3c0-.1-.2.7-.2.7Z"/>
  <path d="M90.2,55.7h-.1c-6.3,0-8.9,3.6-8.9,8s2.8,8,8.9,8h0c6,0,8.9-3.6,8.9-8s-2.6-8-8.9-8ZM90.1,70.7c-3.1,0-4.9-3.2-4.9-7.1s1.8-7.1,4.9-7.1,4.9,3.2,4.9,7.1-1.8,7.1-4.9,7.1Z"/>
</svg>